ply
format ascii 1.0
comment created by gply, a Houdini tool.
comment converted from .[b]geo
comment for more information about Houdini, try:
comment www.sidefx.com
element vertex 22
property float x
property float y
property float z
property float elevation
property float nx
property float ny
property float nz
property float tilt
property float azimuth
element face 0
property list uchar int vertex_indices
property float restlength
end_header
-50.2773972 47.1941109 -26.5045795 -90 0.935660303 0.0596689694 0.347820789 0 69.6079788 
-35.0353279 48.9873009 -32.5810699 -90 0.239977524 -0.364159405 0.899888277 0 14.9318533 
-50.0795441 64.3269272 -50.4259338 -90 -0.0160889793 -0.298171043 0.954376817 0 -0.965806663 
-67.2605286 67.7424164 -40.4874077 -90 0.955563366 -0.277147532 -0.100439131 0 96.0003204 
-78.9574051 76.7604675 -55.5719299 -90 0.991888165 -0.127025545 0.00471188361 0 89.7280426 
-46.3702469 80.1611328 -39.6087418 -90 -0.107787788 -0.432078928 0.895371079 0 -6.86442661 
-76.7673111 89.3940887 -78.9987411 -90 0.276127726 -0.282573134 0.918643415 0 16.7298355 
-54.2969933 108.869728 -47.4018097 -90 -0.00473632151 -0.449950546 0.893040836 0 -0.30387044 
-88.8177643 95.2632751 -71.2772522 -90 0.959054172 -0.2831949 0.00397937698 0 89.761795 
-65.9254913 120.542999 -46.2326736 -90 0.697653234 -0.450583994 0.557004452 0 51.3962364 
-66.7818756 96.1865921 -29.6954002 -90 0.971027911 -0.124024391 -0.20426181 0 101.879318 
-72.2070465 64.1813278 5.10404825 -90 0.999943614 -0.0105958814 0.000592051016 0 89.9720306 
-77.1424179 74.6039886 10.9330883 -90 0.991991699 -0.123974547 -0.0241393913 0 91.3940887 
-75.2479935 77.8104553 23.9672775 -90 0.656309128 -0.00859388523 -0.754443049 0 138.979172 
-84.0043945 85.6712875 21.977478 -90 0.966576278 -0.00795877632 -0.256255507 0 104.848473 
-77.1309738 92.8524857 36.3727493 -90 0.176513046 -0.0176757183 -0.984139562 0 169.83168 
-98.495491 112.663429 11.1449537 -90 0.907443941 -0.127291173 0.400427639 0 66.1895905 
-82.8919907 111.211754 44.7362328 -90 0.00473629404 -0.282615155 -0.959221601 0 179.717102 
-108.142532 133.256287 3.24714398 -90 0.892637432 -0.449956447 0.0271579102 0 88.2572937 
-107.423096 124.990761 42.6027184 -90 0.99238342 -0.123095781 0.00473633129 0 89.7266083 
-96.7456741 131.847794 57.0599213 -90 0.06948331 -0.449908048 -0.890367746 0 175.53775 
-106.407005 147.316101 69.2757492 -90 0.0694347098 -0.449909598 -0.890370786 0 175.540878 
