ply
format ascii 1.0
comment created by gply, a Houdini tool.
comment converted from .[b]geo
comment for more information about Houdini, try:
comment www.sidefx.com
element vertex 33
property float x
property float y
property float z
property float elevation
property float nx
property float ny
property float nz
property float tilt
property float azimuth
element face 0
property list uchar int vertex_indices
property float restlength
end_header
-1.02382457 71.8772278 58.0183945 -90 -0.778073788 0.0322023034 -0.627346814 0 231.121414 
-9.85104847 62.5303917 48.7935524 -90 -0.0476064496 -0.0589831695 -0.997123182 0 182.733444 
-11.6277771 158.681503 78.4256821 -90 -0.375317127 -0.305029124 -0.875268042 0 203.209778 
-9.72253895 82.6628113 72.2771759 -90 -0.266986132 0.0110838609 -0.963636696 0 195.485992 
-9.41944313 109.986946 86.8404846 -90 -0.467701614 -0.258932948 -0.845108688 0 208.961105 
-17.5524769 129.746521 100.611176 -90 0.00474850088 -0.282615155 -0.959221542 0 179.71637 
-24.8538055 146.999496 79.9549942 -90 0.563786268 -0.282613337 -0.776063561 0 144.002747 
-22.0714512 170.190567 75.8577652 -90 0.307024986 -0.449911028 -0.838639259 0 159.89238 
-19.5427895 53.7529755 32.4493752 -90 0.712183833 0.0161133111 -0.701807857 0 134.579575 
-16.2444992 216.023621 50.3847084 -90 0.00474850088 -0.282615155 -0.959221542 0 179.71637 
-31.2723923 193.013535 40.0893211 -90 0.780720949 -0.0121095004 -0.624762356 0 128.668106 
-46.4974556 155.435364 32.3673134 -90 0.693550766 -0.124022737 -0.709651709 0 135.65741 
-50.994381 173.694199 35.970005 -90 0.729633749 -0.282527119 -0.62274617 0 130.480942 
-46.2998886 145.775696 18.4305801 -90 0.990956664 -0.134181634 9.7657663e-05 0 90.0000076 
-10.0843353 80.95858 -21.2714901 -90 -0.0589476191 -0.169872656 0.983701289 0 -3.42930889 
-14.9180088 130.281113 -22.2204762 -90 -0.246071324 -0.266164273 0.931990027 0 -14.7901716 
-24.7462502 191.112091 -27.9721527 -90 -0.544487834 -0.302626163 0.782272458 0 -34.8392105 
-58.6336288 166.398834 -31.2266197 -90 0.992267787 -0.124024309 0.00474856887 0 89.7258911 
-49.0692024 202.223679 -20.4588585 -90 0.963955522 -0.264157593 0.0317867994 0 88.1113434 
-48.493084 216.481125 -17.4320564 -90 0.807109416 -0.317873031 -0.497525036 0 121.650841 
-55.4774399 239.265884 -29.7089024 -90 0.893453062 -0.44913137 0.004736437 0 89.696106 
-55.685833 194.41626 -56.0154419 -90 -0.0161129665 -0.545887828 0.837703407 0 -1.10193098 
-47.5523987 174.966248 -48.1478958 -90 -0.00473629404 -0.282615155 0.959221601 0 -0.28290382 
-39.2892456 231.77655 -40.2664032 -90 -0.0501472279 -0.464167029 0.884327054 0 -3.24557614 
-14.3041363 134.063461 -58.830471 -90 0.217691854 -0.262155503 0.940151453 0 13.0370712 
-5.78428316 125.412628 -47.8735199 -90 -0.43104142 -0.217336535 0.875767052 0 -26.2058258 
9.68754959 242.738388 -15.1529446 -90 0.888580382 -0.458696187 0.0047485847 0 89.6941833 
-1.90085483 171.067871 -25.4105568 -90 -0.356199384 -0.324219882 0.876358032 0 -22.1194897 
4.10459995 218.69812 -12.6691141 -90 0.904563427 -0.399710894 -0.148310751 0 99.311264 
19.1258774 206.463974 -2.91564679 -90 -0.364199698 -0.305959523 -0.879629016 0 202.491409 
28.0116615 226.516418 -22.460186 -90 -0.705056608 -0.409857869 0.578715503 0 -50.6206093 
28.3424816 244.124252 -20.1218319 -90 -0.515205264 -0.757317364 0.401290298 0 -52.0851898 
24.1380482 206.928131 -31.6961765 -90 -0.167186409 -0.460641503 0.87169832 0 -10.8571339 
